<svg width="289" height="65" viewBox="0 0 289 65" fill="none" xmlns="http://www.w3.org/2000/svg">
<path d="M6.02726 40.744C6.02726 42.408 6.83792 43.8587 8.45926 45.096C10.0806 46.3333 12.1713 46.952 14.7313 46.952C17.2913 46.952 19.3179 46.3333 20.8113 45.096C22.3046 43.8587 23.0513 42.216 23.0513 40.168C23.0513 37.5653 21.4939 35.4107 18.3793 33.704L8.90726 28.648C3.44592 25.704 0.715256 21.5013 0.715256 16.04C0.715256 12.5413 1.99526 9.53333 4.55526 7.016C7.11526 4.49866 10.9339 3.24 16.0113 3.24C19.4246 3.24 22.6673 3.92266 25.7393 5.288C28.8113 6.65333 30.3473 8.27466 30.3473 10.152C30.3473 10.8773 30.1126 11.7093 29.6433 12.648L26.5713 18.536L24.3313 17.832V12.456C24.3313 10.536 23.4779 9.02133 21.7713 7.912C20.1073 6.80266 18.1019 6.248 15.7553 6.248C13.4513 6.248 11.6806 6.93066 10.4433 8.296C9.20592 9.66133 8.58726 11.2187 8.58726 12.968C8.58726 16.4667 10.1659 19.048 13.3233 20.712L21.4513 25C27.6379 28.2427 30.7313 32.5093 30.7313 37.8C30.7313 41.8107 29.2166 44.84 26.1873 46.888C23.2006 48.936 19.4033 49.96 14.7953 49.96C11.3393 49.96 8.01126 49.2773 4.81126 47.912C1.61126 46.5467 0.0112562 44.9253 0.0112562 43.048C0.0112562 42.3227 0.245923 41.4907 0.715256 40.552L3.78726 34.664L6.02726 35.368V40.744ZM65.4393 17V41.896C65.4393 43.048 65.7166 43.9653 66.2713 44.648C66.8259 45.288 67.6793 45.608 68.8313 45.608C69.9833 45.608 71.3059 44.9893 72.7993 43.752L73.9513 45.288C70.5379 48.4027 67.1246 49.96 63.7113 49.96C59.6579 49.96 57.1619 48.0613 56.2233 44.264C54.0046 48.0613 50.7406 49.96 46.4313 49.96C41.5246 49.96 37.7913 48.3813 35.2313 45.224C32.6713 42.024 31.3913 37.9707 31.3913 33.064C31.3913 28.1147 32.7566 24.04 35.4873 20.84C38.2606 17.64 42.1219 16.04 47.0713 16.04C50.8686 16.04 53.7913 17.5547 55.8393 20.584V17H65.4393ZM43.1033 23.272C41.9086 25.6613 41.3113 28.904 41.3113 33C41.3113 37.096 41.9086 40.3387 43.1033 42.728C44.2979 45.1173 46.1113 46.312 48.5433 46.312C51.0179 46.312 52.8953 45.1173 54.1753 42.728C55.4979 40.296 56.1593 37.0533 56.1593 33C56.1593 28.9467 55.4979 25.7253 54.1753 23.336C52.8953 20.904 51.0179 19.688 48.5433 19.688C46.1113 19.688 44.2979 20.8827 43.1033 23.272ZM68.7648 20.52V17.896H74.0128V11.432C74.0128 8.06133 74.9728 5.33067 76.8928 3.24C78.8128 1.10666 81.9061 0.0399971 86.1728 0.0399971C88.2634 0.0399971 90.2474 0.423997 92.1248 1.192C94.0448 1.96 95.6234 2.984 96.8608 4.264L95.1328 6.248C93.2981 4.66933 91.2501 3.88 88.9888 3.88C85.4048 3.88 83.6128 6.22666 83.6128 10.92V17.896H90.8448V20.52H83.6128V57.448H74.0128V20.52H68.7648ZM101.03 34.216C103.803 33.96 105.936 32.9147 107.43 31.08C108.966 29.2027 109.734 27.3253 109.734 25.448C109.734 23.528 109.307 22.056 108.454 21.032C107.643 20.008 106.384 19.496 104.678 19.496C103.014 19.496 101.414 20.6907 99.8778 23.08C98.3418 25.4693 97.5738 28.6693 97.5738 32.68C97.5738 36.6907 98.2991 39.912 99.7498 42.344C101.2 44.776 103.27 45.992 105.958 45.992C110.054 45.992 113.531 44.392 116.39 41.192L118.182 42.344C116.731 44.648 114.811 46.504 112.422 47.912C110.032 49.2773 107.344 49.96 104.358 49.96C99.2804 49.96 95.2271 48.296 92.1978 44.968C89.1684 41.5973 87.6538 37.544 87.6538 32.808C87.6538 28.072 89.2538 24.104 92.4538 20.904C95.6964 17.6613 100.176 16.04 105.894 16.04C109.648 16.04 112.592 16.9147 114.726 18.664C116.859 20.4133 117.926 22.632 117.926 25.32C117.926 28.008 116.731 30.504 114.342 32.808C111.995 35.0693 108.88 36.2 104.998 36.2C103.675 36.2 102.395 36.0507 101.158 35.752L101.03 34.216ZM124.177 40.744C124.177 42.408 124.988 43.8587 126.609 45.096C128.231 46.3333 130.321 46.952 132.881 46.952C135.441 46.952 137.468 46.3333 138.961 45.096C140.455 43.8587 141.201 42.216 141.201 40.168C141.201 37.5653 139.644 35.4107 136.529 33.704L127.057 28.648C121.596 25.704 118.865 21.5013 118.865 16.04C118.865 12.5413 120.145 9.53333 122.705 7.016C125.265 4.49866 129.084 3.24 134.161 3.24C137.575 3.24 140.817 3.92266 143.889 5.288C146.961 6.65333 148.497 8.27466 148.497 10.152C148.497 10.8773 148.263 11.7093 147.793 12.648L144.721 18.536L142.481 17.832V12.456C142.481 10.536 141.628 9.02133 139.921 7.912C138.257 6.80266 136.252 6.248 133.905 6.248C131.601 6.248 129.831 6.93066 128.593 8.296C127.356 9.66133 126.737 11.2187 126.737 12.968C126.737 16.4667 128.316 19.048 131.473 20.712L139.601 25C145.788 28.2427 148.881 32.5093 148.881 37.8C148.881 41.8107 147.367 44.84 144.337 46.888C141.351 48.936 137.553 49.96 132.945 49.96C129.489 49.96 126.161 49.2773 122.961 47.912C119.761 46.5467 118.161 44.9253 118.161 43.048C118.161 42.3227 118.396 41.4907 118.865 40.552L121.937 34.664L124.177 35.368V40.744ZM153.317 17C157.243 17 160.635 18.088 163.493 20.264C165.755 17.448 168.699 16.04 172.325 16.04C177.232 16.04 180.965 17.64 183.525 20.84C186.085 23.9973 187.365 28.0507 187.365 33C187.365 37.9067 185.979 41.96 183.205 45.16C180.475 48.36 176.635 49.96 171.685 49.96C168.016 49.96 165.093 48.3173 162.917 45.032V65H153.317V19.56C151.397 19.56 149.691 19.88 148.197 20.52L147.301 18.152C149.136 17.384 151.141 17 153.317 17ZM175.653 42.728C176.848 40.3387 177.445 37.096 177.445 33C177.445 28.904 176.848 25.6613 175.653 23.272C174.459 20.8827 172.624 19.688 170.149 19.688C167.717 19.688 165.84 20.904 164.517 23.336C163.237 25.7253 162.597 28.9467 162.597 33C162.597 37.0533 163.237 40.296 164.517 42.728C165.84 45.1173 167.717 46.312 170.149 46.312C172.624 46.312 174.459 45.1173 175.653 42.728ZM223.314 17V41.896C223.314 43.048 223.592 43.9653 224.146 44.648C224.701 45.288 225.554 45.608 226.706 45.608C227.858 45.608 229.181 44.9893 230.674 43.752L231.826 45.288C228.413 48.4027 225 49.96 221.586 49.96C217.533 49.96 215.037 48.0613 214.098 44.264C211.88 48.0613 208.616 49.96 204.306 49.96C199.4 49.96 195.666 48.3813 193.106 45.224C190.546 42.024 189.266 37.9707 189.266 33.064C189.266 28.1147 190.632 24.04 193.362 20.84C196.136 17.64 199.997 16.04 204.946 16.04C208.744 16.04 211.666 17.5547 213.714 20.584V17H223.314ZM200.978 23.272C199.784 25.6613 199.186 28.904 199.186 33C199.186 37.096 199.784 40.3387 200.978 42.728C202.173 45.1173 203.986 46.312 206.418 46.312C208.893 46.312 210.77 45.1173 212.05 42.728C213.373 40.296 214.034 37.0533 214.034 33C214.034 28.9467 213.373 25.7253 212.05 23.336C210.77 20.904 208.893 19.688 206.418 19.688C203.986 19.688 202.173 20.8827 200.978 23.272ZM245.328 49.96C240.25 49.96 236.133 48.3387 232.976 45.096C229.861 41.8107 228.304 37.7787 228.304 33C228.304 28.2213 229.861 24.2107 232.976 20.968C236.133 17.6827 240.229 16.04 245.264 16.04C248.08 16.04 250.832 16.8507 253.52 18.472C256.208 20.0933 257.552 22.2907 257.552 25.064C257.552 26.472 257.04 27.688 256.016 28.712C255.034 29.6933 253.84 30.184 252.432 30.184C251.024 30.184 249.808 29.6933 248.784 28.712C247.802 27.688 247.312 26.536 247.312 25.256C247.312 23.976 247.653 22.888 248.336 21.992C249.018 21.096 249.914 20.4773 251.024 20.136C249.829 19.624 248.464 19.368 246.928 19.368C244.069 19.368 241.893 20.648 240.4 23.208C238.949 25.7253 238.224 28.9467 238.224 32.872C238.224 36.7547 238.949 39.912 240.4 42.344C241.893 44.776 244.069 45.992 246.928 45.992C250.768 45.992 254.032 44.392 256.72 41.192L258.512 42.344C257.104 44.648 255.248 46.504 252.944 47.912C250.682 49.2773 248.144 49.96 245.328 49.96ZM271.217 34.216C273.991 33.96 276.124 32.9147 277.617 31.08C279.153 29.2027 279.921 27.3253 279.921 25.448C279.921 23.528 279.495 22.056 278.641 21.032C277.831 20.008 276.572 19.496 274.865 19.496C273.201 19.496 271.601 20.6907 270.065 23.08C268.529 25.4693 267.761 28.6693 267.761 32.68C267.761 36.6907 268.487 39.912 269.937 42.344C271.388 44.776 273.457 45.992 276.145 45.992C280.241 45.992 283.719 44.392 286.577 41.192L288.369 42.344C286.919 44.648 284.999 46.504 282.609 47.912C280.22 49.2773 277.532 49.96 274.545 49.96C269.468 49.96 265.415 48.296 262.385 44.968C259.356 41.5973 257.841 37.544 257.841 32.808C257.841 28.072 259.441 24.104 262.641 20.904C265.884 17.6613 270.364 16.04 276.081 16.04C279.836 16.04 282.78 16.9147 284.913 18.664C287.047 20.4133 288.113 22.632 288.113 25.32C288.113 28.008 286.919 30.504 284.529 32.808C282.183 35.0693 279.068 36.2 275.185 36.2C273.863 36.2 272.583 36.0507 271.345 35.752L271.217 34.216Z" fill="#072139"/>
</svg>
